<mxfile host="65bd71144e">
    <diagram id="aXXs625ccMSLjDtHw2Hg" name="Page-1">
        <mxGraphModel dx="954" dy="699" grid="1" gridSize="10" guides="1" tooltips="1" connect="1" arrows="1" fold="1" page="1" pageScale="1" pageWidth="850" pageHeight="1100" math="0" shadow="0">
            <root>
                <mxCell id="0"/>
                <mxCell id="1" parent="0"/>
                <mxCell id="8" value="" style="group" vertex="1" connectable="0" parent="1">
                    <mxGeometry x="280" y="40" width="80" height="320" as="geometry"/>
                </mxCell>
                <mxCell id="2" value="Prompt" style="ellipse;whiteSpace=wrap;html=1;aspect=fixed;" vertex="1" parent="8">
                    <mxGeometry width="80" height="80" as="geometry"/>
                </mxCell>
                <mxCell id="3" value="Model" style="ellipse;whiteSpace=wrap;html=1;aspect=fixed;" vertex="1" parent="8">
                    <mxGeometry y="120" width="80" height="80" as="geometry"/>
                </mxCell>
                <mxCell id="4" value="Str&lt;br&gt;Parser" style="ellipse;whiteSpace=wrap;html=1;aspect=fixed;" vertex="1" parent="8">
                    <mxGeometry y="240" width="80" height="80" as="geometry"/>
                </mxCell>
                <mxCell id="5" value="" style="endArrow=classic;html=1;exitX=0.5;exitY=1;exitDx=0;exitDy=0;entryX=0.5;entryY=0;entryDx=0;entryDy=0;" edge="1" parent="8" source="2" target="3">
                    <mxGeometry width="50" height="50" relative="1" as="geometry">
                        <mxPoint x="220" y="110" as="sourcePoint"/>
                        <mxPoint x="270" y="60" as="targetPoint"/>
                    </mxGeometry>
                </mxCell>
                <mxCell id="6" value="" style="endArrow=classic;html=1;exitX=0.5;exitY=1;exitDx=0;exitDy=0;entryX=0.5;entryY=0;entryDx=0;entryDy=0;" edge="1" parent="8" source="3" target="4">
                    <mxGeometry width="50" height="50" relative="1" as="geometry">
                        <mxPoint x="220" y="110" as="sourcePoint"/>
                        <mxPoint x="270" y="60" as="targetPoint"/>
                    </mxGeometry>
                </mxCell>
            </root>
        </mxGraphModel>
    </diagram>
</mxfile>